<?xml version="1.0" encoding="UTF-8" standalone="no"?>
<svg
   xmlns:dc="http://purl.org/dc/elements/1.1/"
   xmlns:cc="http://creativecommons.org/ns#"
   xmlns:rdf="http://www.w3.org/1999/02/22-rdf-syntax-ns#"
   xmlns:svg="http://www.w3.org/2000/svg"
   xmlns="http://www.w3.org/2000/svg"
   xmlns:sodipodi="http://sodipodi.sourceforge.net/DTD/sodipodi-0.dtd"
   xmlns:inkscape="http://www.inkscape.org/namespaces/inkscape"
   width="64"
   height="64"
   viewBox="0 0 16.933333 16.933334"
   version="1.1"
   id="svg2314"
   inkscape:version="1.0.2 (e86c870879, 2021-01-15, custom)"
   sodipodi:docname="fastest.png.svg"
   inkscape:export-filename="C:\Users\Javi\Documents\UnityProjects\TrafficManager\Assets\Art\Sprites\Originals\fastest.png"
   inkscape:export-xdpi="96"
   inkscape:export-ydpi="96">
  <defs
     id="defs2308" />
  <sodipodi:namedview
     id="base"
     pagecolor="#ffffff"
     bordercolor="#666666"
     borderopacity="1.0"
     inkscape:pageopacity="0.0"
     inkscape:pageshadow="2"
     inkscape:zoom="2.8"
     inkscape:cx="-9.7968566"
     inkscape:cy="6.7974045"
     inkscape:document-units="px"
     inkscape:current-layer="layer1"
     inkscape:document-rotation="0"
     showgrid="false"
     units="px"
     inkscape:window-width="1920"
     inkscape:window-height="1009"
     inkscape:window-x="-8"
     inkscape:window-y="-8"
     inkscape:window-maximized="1" />
  <metadata
     id="metadata2311">
    <rdf:RDF>
      <cc:Work
         rdf:about="">
        <dc:format>image/svg+xml</dc:format>
        <dc:type
           rdf:resource="http://purl.org/dc/dcmitype/StillImage" />
        <dc:title></dc:title>
      </cc:Work>
    </rdf:RDF>
  </metadata>
  <g
     inkscape:label="Capa 1"
     inkscape:groupmode="layer"
     id="layer1">
    <path
       style="fill:none;stroke:#000000;stroke-width:0.951222;stroke-linecap:butt;stroke-linejoin:miter;stroke-miterlimit:4;stroke-dasharray:none;stroke-opacity:1"
       d="M 0.56265521,2.2874275 V 14.807889 c -0.0125239,1.976494 -0.18106111,1.762976 0.90644339,0.82253 l 2.4731741,-2.245846 c 0.021227,-5.7021725 -0.00943,-3.192404 0.059536,-9.8687228 L 1.4982938,1.4001927 C 0.30749206,0.31213648 0.56265521,0.36461603 0.56265521,2.2874275 Z"
       id="path830"
       sodipodi:nodetypes="ccccccc" />
    <path
       style="fill:none;stroke:#000000;stroke-width:0.951222;stroke-linecap:butt;stroke-linejoin:miter;stroke-miterlimit:4;stroke-dasharray:none;stroke-opacity:1"
       d="M 4.0798958,2.2008639 V 14.721325 c -0.012524,1.976494 -0.1810611,1.762976 0.9064433,0.82253 0.2945496,-0.233604 0.854706,-0.676926 0.854706,-0.676926 0.3113933,-0.279525 0.9156202,-0.77239 1.5525231,-1.45031 C 7.2719317,11.412477 7.1686075,7.9246357 7.1771313,3.2830432 6.8024733,2.8873014 6.3782135,2.4847279 5.8998043,2.075817 5.6144059,1.8318783 5.3196086,1.5780607 5.0155344,1.3136291 3.8247326,0.22557289 4.0798958,0.27805244 4.0798958,2.2008639 Z"
       id="path830-4"
       sodipodi:nodetypes="ccccccscc" />
    <path
       style="fill:#000000;stroke:#000000;stroke-width:0.223596px;stroke-linecap:butt;stroke-linejoin:miter;stroke-opacity:1"
       d="M 2.1250875,1.8622044 2.0516546,15.445724 4.2002606,13.319608 4.0315474,3.5158502 Z"
       id="path876"
       sodipodi:nodetypes="ccccc" />
    <path
       style="fill:none;stroke:#000000;stroke-width:0.951222;stroke-linecap:butt;stroke-linejoin:miter;stroke-miterlimit:4;stroke-dasharray:none;stroke-opacity:1"
       d="M 7.4413484,2.3346289 V 14.85509 c -0.012524,1.976494 -0.1810611,1.762976 0.9064433,0.82253 L 15.773111,9.2563957 C 16.884555,8.3785681 16.598737,8.5972622 15.645216,7.7680527 L 8.3769871,1.4473941 C 7.1861853,0.35933784 7.4413484,0.41181744 7.4413484,2.3346289 Z"
       id="path830-4-3"
       sodipodi:nodetypes="ccccccc" />
    <path
       style="fill:#000000;stroke:#000000;stroke-width:0.739359;stroke-linecap:butt;stroke-linejoin:miter;stroke-miterlimit:4;stroke-dasharray:none;stroke-opacity:1"
       d="m 9.2633932,3.7944928 v 9.9637382 c -0.00948,1.572886 -0.1374565,1.402969 0.6881448,0.654567 l 5.637083,-5.1099877 c 0.843776,-0.6985721 0.626792,-0.5245361 -0.0971,-1.184418 L 9.9737015,3.0884344 C 9.0696805,2.2225631 9.2633932,2.2643261 9.2633932,3.7944928 Z"
       id="path830-8-6-5"
       sodipodi:nodetypes="ccccccc" />
    <path
       style="fill:#000000;stroke:#000000;stroke-width:0.223596px;stroke-linecap:butt;stroke-linejoin:miter;stroke-opacity:1"
       d="M 5.6644898,1.7982153 5.5910569,15.381734 7.7396629,13.255618 7.5709497,3.4518612 Z"
       id="path876-6"
       sodipodi:nodetypes="ccccc" />
  </g>
</svg>
